<svg xmlns="http://www.w3.org/2000/svg" viewBox="0 0 800 600" preserveAspectRatio="xMidYMid slice"><defs><linearGradient id="sk" x1="0" y1="0" x2="0" y2="1"><stop offset="0" stop-color="#8fbde6"/><stop offset="1" stop-color="#e6f1fa"/></linearGradient></defs><rect width="800" height="600" fill="url(#sk)"/><circle cx="650" cy="105" r="44" fill="#fff6d6" opacity=".9"/><ellipse cx="160" cy="110" rx="72" ry="20" fill="#fff" opacity=".75"/><ellipse cx="210" cy="96" rx="48" ry="16" fill="#fff" opacity=".75"/><ellipse cx="470" cy="165" rx="60" ry="15" fill="#fff" opacity=".6"/><rect y="470" width="800" height="130" fill="#76b062"/><rect y="498" width="800" height="14" fill="#d8d2c4" opacity=".7"/><rect x="170" y="260" width="460" height="232" fill="#cfe3ee"/><polygon points="138,266 400,148 662,266" fill="#2f4a63"/><rect x="520" y="170" width="38" height="70" fill="#cfe3ee"/><rect x="514" y="164" width="50" height="10" fill="#ffffff"/><rect x="160" y="258" width="480" height="10" fill="#ffffff"/><rect x="170" y="446" width="460" height="14" fill="#ffffff"/><rect x="362" y="356" width="76" height="136" fill="#2f4a63"/><circle cx="426" cy="428" r="4" fill="#d9b370"/><rect x="352" y="346" width="96" height="12" fill="#ffffff"/><rect x="210" y="292" width="90" height="66" fill="#cfe6f5" stroke="#ffffff" stroke-width="6"/><line x1="255" y1="292" x2="255" y2="358" stroke="#ffffff" stroke-width="3"/><rect x="210" y="384" width="90" height="56" fill="#cfe6f5" stroke="#ffffff" stroke-width="6"/><line x1="255" y1="384" x2="255" y2="440" stroke="#ffffff" stroke-width="3"/><rect x="500" y="292" width="90" height="66" fill="#cfe6f5" stroke="#ffffff" stroke-width="6"/><line x1="545" y1="292" x2="545" y2="358" stroke="#ffffff" stroke-width="3"/><rect x="500" y="384" width="90" height="56" fill="#cfe6f5" stroke="#ffffff" stroke-width="6"/><line x1="545" y1="384" x2="545" y2="440" stroke="#ffffff" stroke-width="3"/></svg>