<svg xmlns="http://www.w3.org/2000/svg" viewBox="0 0 800 600" preserveAspectRatio="xMidYMid slice"><defs><linearGradient id="sk" x1="0" y1="0" x2="0" y2="1"><stop offset="0" stop-color="#a4c7e6"/><stop offset="1" stop-color="#ecf3fa"/></linearGradient></defs><rect width="800" height="600" fill="url(#sk)"/><circle cx="650" cy="105" r="44" fill="#fff6d6" opacity=".9"/><ellipse cx="160" cy="110" rx="72" ry="20" fill="#fff" opacity=".75"/><ellipse cx="210" cy="96" rx="48" ry="16" fill="#fff" opacity=".75"/><ellipse cx="470" cy="165" rx="60" ry="15" fill="#fff" opacity=".6"/><polygon points="0,330 800,330 800,600 0,600" fill="#e8e2d4"/><polygon points="0,330 800,330 760,300 40,300" fill="#f6f2e8"/><rect x="0" y="300" width="800" height="14" fill="#c8c3b5"/><rect x="560" y="140" width="130" height="150" rx="14" fill="#3a3f48"/><rect x="552" y="132" width="146" height="14" rx="6" fill="#2b2f36"/><rect x="580" y="290" width="12" height="40" fill="#2b2f36"/><rect x="660" y="290" width="12" height="40" fill="#2b2f36"/><rect x="90" y="220" width="110" height="80" fill="#d6cdb8"/><rect x="82" y="212" width="126" height="12" fill="#b6ad98"/><polygon points="0,330 800,330 800,600 0,600" fill="#c8553d" opacity=".22"/><line x1="50" y1="330" x2="-300" y2="600" stroke="#fff" stroke-width="2" opacity=".45"/><line x1="150" y1="330" x2="-200" y2="600" stroke="#fff" stroke-width="2" opacity=".45"/><line x1="250" y1="330" x2="-100" y2="600" stroke="#fff" stroke-width="2" opacity=".45"/><line x1="350" y1="330" x2="0" y2="600" stroke="#fff" stroke-width="2" opacity=".45"/><line x1="450" y1="330" x2="100" y2="600" stroke="#fff" stroke-width="2" opacity=".45"/><line x1="550" y1="330" x2="200" y2="600" stroke="#fff" stroke-width="2" opacity=".45"/><line x1="650" y1="330" x2="300" y2="600" stroke="#fff" stroke-width="2" opacity=".45"/><line x1="750" y1="330" x2="400" y2="600" stroke="#fff" stroke-width="2" opacity=".45"/></svg>